<mxfile host="65bd71144e">
    <diagram id="IqDgqkDdjlU8SYLxlE5-" name="ページ1">
        <mxGraphModel dx="902" dy="549" grid="1" gridSize="10" guides="1" tooltips="1" connect="1" arrows="1" fold="1" page="1" pageScale="1" pageWidth="827" pageHeight="1169" math="0" shadow="0">
            <root>
                <mxCell id="0"/>
                <mxCell id="1" parent="0"/>
                <mxCell id="2" value="高頻度の「私」" style="swimlane;whiteSpace=wrap;html=1;" parent="1" vertex="1">
                    <mxGeometry x="40" y="399" width="170" height="280.5" as="geometry"/>
                </mxCell>
                <mxCell id="3" style="edgeStyle=orthogonalEdgeStyle;rounded=0;orthogonalLoop=1;jettySize=auto;html=1;entryX=0.5;entryY=0;entryDx=0;entryDy=0;" parent="2" edge="1">
                    <mxGeometry relative="1" as="geometry">
                        <mxPoint x="85" y="182" as="sourcePoint"/>
                        <mxPoint x="85" y="212.5" as="targetPoint"/>
                    </mxGeometry>
                </mxCell>
                <mxCell id="4" value="&lt;div style=&quot;border-color: var(--border-color);&quot;&gt;&lt;div style=&quot;border-color: var(--border-color);&quot;&gt;「私」を多く言う人は&lt;/div&gt;&lt;div style=&quot;border-color: var(--border-color);&quot;&gt;- 会話のボールを意識する人&lt;/div&gt;&lt;div style=&quot;border-color: var(--border-color);&quot;&gt;- 権力者&lt;/div&gt;&lt;div style=&quot;border-color: var(--border-color);&quot;&gt;- 正直者&lt;/div&gt;&lt;div style=&quot;border-color: var(--border-color);&quot;&gt;これらの要素を自由要旨する&lt;/div&gt;&lt;/div&gt;" style="rounded=1;whiteSpace=wrap;html=1;shadow=0;labelBackgroundColor=none;strokeColor=none;strokeWidth=3;fillColor=#2F5B7C;fontFamily=Helvetica;fontSize=14;fontColor=#FFFFFF;align=left;spacing=5;arcSize=0;perimeterSpacing=2;" parent="2" vertex="1">
                    <mxGeometry x="10" y="30" width="150" height="150" as="geometry"/>
                </mxCell>
                <mxCell id="5" value="&lt;span style=&quot;font-size: 14px; font-weight: 400;&quot;&gt;「私」の高頻度&lt;/span&gt;&lt;div&gt;&lt;span style=&quot;font-size: 14px; font-weight: 400;&quot;&gt;「ボール」を意識している/権力/正直&lt;/span&gt;&lt;br&gt;&lt;/div&gt;" style="rounded=1;whiteSpace=wrap;html=1;shadow=0;labelBackgroundColor=none;strokeColor=none;strokeWidth=3;fillColor=#2F5B7C;fontFamily=Helvetica;fontSize=16;fontColor=#FFFFFF;align=center;fontStyle=1;spacing=5;arcSize=0;perimeterSpacing=2;" parent="2" vertex="1">
                    <mxGeometry x="10" y="210" width="150" height="64" as="geometry"/>
                </mxCell>
                <mxCell id="6" value="「我々」" style="swimlane;whiteSpace=wrap;html=1;" parent="1" vertex="1">
                    <mxGeometry x="240" y="80" width="170" height="279.5" as="geometry"/>
                </mxCell>
                <mxCell id="7" value="&lt;div&gt;「我々」&lt;/div&gt;仲間意識が強い" style="rounded=1;whiteSpace=wrap;html=1;shadow=0;labelBackgroundColor=none;strokeColor=none;strokeWidth=3;fillColor=#F08705;fontFamily=Helvetica;fontSize=14;fontColor=#FFFFFF;align=center;spacing=5;fontStyle=1;arcSize=0;perimeterSpacing=2;" parent="6" vertex="1">
                    <mxGeometry x="10" y="210" width="150" height="63" as="geometry"/>
                </mxCell>
                <mxCell id="8" style="edgeStyle=orthogonalEdgeStyle;rounded=0;orthogonalLoop=1;jettySize=auto;html=1;" parent="6" source="9" target="7" edge="1">
                    <mxGeometry relative="1" as="geometry"/>
                </mxCell>
                <mxCell id="9" value="仲間意識が強いが&lt;div&gt;決断力が低いケースが多い&lt;/div&gt;" style="rounded=1;whiteSpace=wrap;html=1;shadow=0;labelBackgroundColor=none;strokeColor=none;strokeWidth=3;fillColor=#f5af58;fontFamily=Helvetica;fontSize=14;fontColor=#FFFFFF;align=left;spacing=5;arcSize=0;perimeterSpacing=2;" parent="6" vertex="1">
                    <mxGeometry x="10" y="30" width="150" height="150" as="geometry"/>
                </mxCell>
                <mxCell id="10" value="「まぁ」" style="swimlane;whiteSpace=wrap;html=1;" parent="1" vertex="1">
                    <mxGeometry x="440" y="80" width="170" height="279.5" as="geometry"/>
                </mxCell>
                <mxCell id="11" value="「まぁ」&lt;br&gt;&lt;div&gt;妥協&lt;/div&gt;" style="rounded=1;whiteSpace=wrap;html=1;shadow=0;labelBackgroundColor=none;strokeColor=none;strokeWidth=3;fillColor=#1699d3;fontFamily=Helvetica;fontSize=14;fontColor=#FFFFFF;align=center;spacing=5;fontStyle=1;arcSize=7;perimeterSpacing=2;" parent="10" vertex="1">
                    <mxGeometry x="10" y="210" width="150" height="60" as="geometry"/>
                </mxCell>
                <mxCell id="12" style="edgeStyle=orthogonalEdgeStyle;rounded=0;orthogonalLoop=1;jettySize=auto;html=1;entryX=0.5;entryY=0;entryDx=0;entryDy=0;" parent="10" source="13" target="11" edge="1">
                    <mxGeometry relative="1" as="geometry"/>
                </mxCell>
                <mxCell id="13" value="&lt;div&gt;妥協。&lt;/div&gt;&lt;div&gt;「本当は納得していないけど、争いごとを避けたいから肯定しておくか」といった心理が働いた結果、「まぁ…」と言ってしまいます。&lt;/div&gt;" style="rounded=1;whiteSpace=wrap;html=1;shadow=0;labelBackgroundColor=none;strokeColor=none;strokeWidth=3;fillColor=#64bbe2;fontFamily=Helvetica;fontSize=14;fontColor=#FFFFFF;align=left;spacing=5;arcSize=0;perimeterSpacing=2;" parent="10" vertex="1">
                    <mxGeometry x="10" y="30" width="150" height="149.5" as="geometry"/>
                </mxCell>
                <mxCell id="14" value="「ここだけの話」" style="swimlane;whiteSpace=wrap;html=1;" parent="1" vertex="1">
                    <mxGeometry x="240" y="400" width="170" height="279.5" as="geometry"/>
                </mxCell>
                <mxCell id="15" value="「仲良くしてね」という意図的なメッセージ&lt;div&gt;&lt;/div&gt;" style="rounded=1;whiteSpace=wrap;html=1;shadow=0;labelBackgroundColor=none;strokeColor=none;strokeWidth=3;fillColor=#F08705;fontFamily=Helvetica;fontSize=14;fontColor=#FFFFFF;align=center;spacing=5;fontStyle=1;arcSize=0;perimeterSpacing=2;" parent="14" vertex="1">
                    <mxGeometry x="10" y="210" width="150" height="63" as="geometry"/>
                </mxCell>
                <mxCell id="16" style="edgeStyle=orthogonalEdgeStyle;rounded=0;orthogonalLoop=1;jettySize=auto;html=1;" parent="14" source="17" target="15" edge="1">
                    <mxGeometry relative="1" as="geometry"/>
                </mxCell>
                <mxCell id="17" value="近づきたい、仲良くなりたい人が見つかれば、価値ある情報を提供して特別扱いをして距離を縮めていきます。" style="rounded=1;whiteSpace=wrap;html=1;shadow=0;labelBackgroundColor=none;strokeColor=none;strokeWidth=3;fillColor=#f5af58;fontFamily=Helvetica;fontSize=14;fontColor=#FFFFFF;align=left;spacing=5;arcSize=0;perimeterSpacing=2;" parent="14" vertex="1">
                    <mxGeometry x="10" y="30" width="150" height="150" as="geometry"/>
                </mxCell>
                <mxCell id="18" value="「えーと」「あのー」" style="swimlane;whiteSpace=wrap;html=1;" parent="1" vertex="1">
                    <mxGeometry x="440" y="400" width="170" height="279.5" as="geometry"/>
                </mxCell>
                <mxCell id="19" style="edgeStyle=orthogonalEdgeStyle;rounded=0;orthogonalLoop=1;jettySize=auto;html=1;" parent="18" source="20" target="21" edge="1">
                    <mxGeometry relative="1" as="geometry"/>
                </mxCell>
                <UserObject label="有声休止には考えをまとめる補助的役割がある" link="https://qiita.com/" id="20">
                    <mxCell style="rounded=1;whiteSpace=wrap;html=1;shadow=0;labelBackgroundColor=none;strokeColor=none;strokeWidth=3;fillColor=#61c6ce;fontFamily=Helvetica;fontSize=14;fontColor=#FFFFFF;align=center;spacing=5;fontStyle=0;arcSize=0;perimeterSpacing=2;" parent="18" vertex="1">
                        <mxGeometry x="10" y="30" width="150" height="150" as="geometry"/>
                    </mxCell>
                </UserObject>
                <mxCell id="21" value="&lt;span style=&quot;font-weight: 400;&quot;&gt;脳の回転が遅い、大量の情報に、脳がオーバーフローしている&lt;/span&gt;" style="rounded=1;whiteSpace=wrap;html=1;shadow=0;labelBackgroundColor=none;strokeColor=none;strokeWidth=3;fillColor=#12aab5;fontFamily=Helvetica;fontSize=14;fontColor=#FFFFFF;align=center;spacing=5;fontStyle=1;arcSize=0;perimeterSpacing=2;" parent="18" vertex="1">
                    <mxGeometry x="10" y="205.9999999999999" width="150" height="60" as="geometry"/>
                </mxCell>
                <mxCell id="22" value="コソア型" style="swimlane;whiteSpace=wrap;html=1;" parent="1" vertex="1">
                    <mxGeometry x="640" y="400" width="170" height="279.5" as="geometry"/>
                </mxCell>
                <mxCell id="23" style="edgeStyle=orthogonalEdgeStyle;rounded=0;orthogonalLoop=1;jettySize=auto;html=1;" parent="22" source="24" target="25" edge="1">
                    <mxGeometry relative="1" as="geometry"/>
                </mxCell>
                <UserObject label="&lt;div&gt;名前の検索と，適切な表現の検討に二分される。&lt;span style=&quot;background-color: initial;&quot;&gt;（中略）名前の検索とは簡単に言うと，モノ自体はわかっているが，モノの名前が思い出せないと言う場合の心的操作である。&lt;/span&gt;&lt;/div&gt;" link="https://qiita.com/" id="24">
                    <mxCell style="rounded=1;whiteSpace=wrap;html=1;shadow=0;labelBackgroundColor=none;strokeColor=none;strokeWidth=3;fillColor=#61c6ce;fontFamily=Helvetica;fontSize=14;fontColor=#FFFFFF;align=center;spacing=5;fontStyle=0;arcSize=0;perimeterSpacing=2;" parent="22" vertex="1">
                        <mxGeometry x="10" y="30" width="150" height="150" as="geometry"/>
                    </mxCell>
                </UserObject>
                <mxCell id="25" value="&lt;span style=&quot;font-weight: 400;&quot;&gt;名前を思い出せない&lt;/span&gt;" style="rounded=1;whiteSpace=wrap;html=1;shadow=0;labelBackgroundColor=none;strokeColor=none;strokeWidth=3;fillColor=#12aab5;fontFamily=Helvetica;fontSize=14;fontColor=#FFFFFF;align=center;spacing=5;fontStyle=1;arcSize=0;perimeterSpacing=2;" parent="22" vertex="1">
                    <mxGeometry x="10" y="205.9999999999999" width="150" height="60" as="geometry"/>
                </mxCell>
                <mxCell id="26" value="「ちょっと」" style="swimlane;whiteSpace=wrap;html=1;startSize=23;" parent="1" vertex="1">
                    <mxGeometry x="640" y="81" width="170" height="279.5" as="geometry"/>
                </mxCell>
                <mxCell id="27" value="「重く受け止めるな」&lt;br&gt;&lt;div&gt;というメッセージ&lt;/div&gt;" style="rounded=1;whiteSpace=wrap;html=1;shadow=0;labelBackgroundColor=none;strokeColor=none;strokeWidth=3;fillColor=#1699d3;fontFamily=Helvetica;fontSize=14;fontColor=#FFFFFF;align=center;spacing=5;fontStyle=1;arcSize=7;perimeterSpacing=2;" parent="26" vertex="1">
                    <mxGeometry x="10" y="210" width="150" height="60" as="geometry"/>
                </mxCell>
                <mxCell id="28" style="edgeStyle=orthogonalEdgeStyle;rounded=0;orthogonalLoop=1;jettySize=auto;html=1;entryX=0.5;entryY=0;entryDx=0;entryDy=0;" parent="26" source="29" target="27" edge="1">
                    <mxGeometry relative="1" as="geometry"/>
                </mxCell>
                <mxCell id="29" value="&lt;div&gt;「ちょっと」を付けるとクッションの役目をして、棘のないやんわりとした表現にすることができ、&lt;/div&gt;&lt;div&gt;&amp;gt; 本音をはぐらかすことができます。&lt;/div&gt;" style="rounded=1;whiteSpace=wrap;html=1;shadow=0;labelBackgroundColor=none;strokeColor=none;strokeWidth=3;fillColor=#64bbe2;fontFamily=Helvetica;fontSize=14;fontColor=#FFFFFF;align=left;spacing=5;arcSize=0;perimeterSpacing=2;" parent="26" vertex="1">
                    <mxGeometry x="10" y="30" width="150" height="149.5" as="geometry"/>
                </mxCell>
                <mxCell id="30" value="「つまり」" style="swimlane;whiteSpace=wrap;html=1;" parent="1" vertex="1">
                    <mxGeometry x="40" y="81" width="170" height="280" as="geometry"/>
                </mxCell>
                <mxCell id="31" style="edgeStyle=orthogonalEdgeStyle;rounded=0;orthogonalLoop=1;jettySize=auto;html=1;entryX=0.5;entryY=0;entryDx=0;entryDy=0;" parent="30" source="32" target="33" edge="1">
                    <mxGeometry relative="1" as="geometry"/>
                </mxCell>
                <mxCell id="32" value="&lt;div&gt;つまりが口癖の人の性格の１つは、「理論的な人」という事です。&lt;span style=&quot;background-color: initial;&quot;&gt;&amp;nbsp;&lt;/span&gt;&lt;span style=&quot;background-color: initial;&quot;&gt;&amp;nbsp;話が一度に詰まってしまい進みそうにもなくなった時に一度話を切り直してくれる作用があります。&lt;/span&gt;&lt;/div&gt;" style="rounded=1;whiteSpace=wrap;html=1;shadow=0;labelBackgroundColor=none;strokeColor=none;strokeWidth=3;fillColor=#FCAD90;fontFamily=Helvetica;fontSize=14;fontColor=#FFFFFF;align=center;spacing=5;arcSize=0;perimeterSpacing=2;" parent="30" vertex="1">
                    <mxGeometry x="10" y="32" width="150" height="148" as="geometry"/>
                </mxCell>
                <mxCell id="33" value="「本質を見極める力」&lt;div&gt;がある状態&lt;/div&gt;&lt;div&gt;変革に向けた準備が&lt;/div&gt;&lt;div&gt;できている&lt;/div&gt;" style="rounded=1;whiteSpace=wrap;html=1;shadow=0;labelBackgroundColor=none;strokeColor=none;strokeWidth=3;fillColor=#e85642;fontFamily=Helvetica;fontSize=14;fontColor=#FFFFFF;align=center;spacing=5;fontStyle=1;arcSize=7;perimeterSpacing=2;" parent="30" vertex="1">
                    <mxGeometry x="10" y="200" width="150" height="74.5" as="geometry"/>
                </mxCell>
                <mxCell id="34" value="モノが主語" style="swimlane;whiteSpace=wrap;html=1;" parent="1" vertex="1">
                    <mxGeometry x="40" y="720" width="170" height="279.5" as="geometry"/>
                </mxCell>
                <mxCell id="35" value="「仲良くしてね」という意図的なメッセージ&lt;div&gt;&lt;/div&gt;" style="rounded=1;whiteSpace=wrap;html=1;shadow=0;labelBackgroundColor=none;strokeColor=none;strokeWidth=3;fillColor=#F08705;fontFamily=Helvetica;fontSize=14;fontColor=#FFFFFF;align=center;spacing=5;fontStyle=1;arcSize=0;perimeterSpacing=2;" parent="34" vertex="1">
                    <mxGeometry x="10" y="210" width="150" height="63" as="geometry"/>
                </mxCell>
                <mxCell id="36" style="edgeStyle=orthogonalEdgeStyle;rounded=0;orthogonalLoop=1;jettySize=auto;html=1;" parent="34" source="37" target="35" edge="1">
                    <mxGeometry relative="1" as="geometry"/>
                </mxCell>
                <mxCell id="37" value="近づきたい、仲良くなりたい人が見つかれば、価値ある情報を提供して特別扱いをして距離を縮めていきます。" style="rounded=1;whiteSpace=wrap;html=1;shadow=0;labelBackgroundColor=none;strokeColor=none;strokeWidth=3;fillColor=#f5af58;fontFamily=Helvetica;fontSize=14;fontColor=#FFFFFF;align=left;spacing=5;arcSize=0;perimeterSpacing=2;" parent="34" vertex="1">
                    <mxGeometry x="10" y="30" width="150" height="150" as="geometry"/>
                </mxCell>
                <mxCell id="38" value="ミラーリング" style="swimlane;whiteSpace=wrap;html=1;" parent="1" vertex="1">
                    <mxGeometry x="40" y="1040" width="170" height="279.5" as="geometry"/>
                </mxCell>
                <mxCell id="39" value="同じ行動をとる" style="rounded=1;whiteSpace=wrap;html=1;shadow=0;labelBackgroundColor=none;strokeColor=none;strokeWidth=3;fillColor=#F08705;fontFamily=Helvetica;fontSize=14;fontColor=#FFFFFF;align=center;spacing=5;fontStyle=1;arcSize=7;perimeterSpacing=2;" parent="38" vertex="1">
                    <mxGeometry x="10" y="200" width="150" height="73" as="geometry"/>
                </mxCell>
                <mxCell id="40" style="edgeStyle=orthogonalEdgeStyle;rounded=0;orthogonalLoop=1;jettySize=auto;html=1;" parent="38" source="41" target="39" edge="1">
                    <mxGeometry relative="1" as="geometry"/>
                </mxCell>
                <mxCell id="41" value="同じ行動をとる人を&lt;br&gt;無意識に気に入ってしまう心理" style="rounded=1;whiteSpace=wrap;html=1;shadow=0;labelBackgroundColor=none;strokeColor=none;strokeWidth=3;fillColor=#f5af58;fontFamily=Helvetica;fontSize=14;fontColor=#FFFFFF;align=center;spacing=5;arcSize=7;perimeterSpacing=2;" parent="38" vertex="1">
                    <mxGeometry x="10" y="34" width="150" height="148" as="geometry"/>
                </mxCell>
                <mxCell id="42" value="相手の話したい事" style="swimlane;whiteSpace=wrap;html=1;" parent="1" vertex="1">
                    <mxGeometry x="240" y="1040" width="170" height="279.5" as="geometry"/>
                </mxCell>
                <mxCell id="43" value="相手が食いつきそうな&lt;br&gt;話題を振る" style="rounded=1;whiteSpace=wrap;html=1;shadow=0;labelBackgroundColor=none;strokeColor=none;strokeWidth=3;fillColor=#F08705;fontFamily=Helvetica;fontSize=14;fontColor=#FFFFFF;align=center;spacing=5;fontStyle=1;arcSize=7;perimeterSpacing=2;" parent="42" vertex="1">
                    <mxGeometry x="10" y="200" width="150" height="73" as="geometry"/>
                </mxCell>
                <mxCell id="44" style="edgeStyle=orthogonalEdgeStyle;rounded=0;orthogonalLoop=1;jettySize=auto;html=1;" parent="42" source="45" target="43" edge="1">
                    <mxGeometry relative="1" as="geometry"/>
                </mxCell>
                <mxCell id="45" value="相手が食いつきそうな話題を振る" style="rounded=1;whiteSpace=wrap;html=1;shadow=0;labelBackgroundColor=none;strokeColor=none;strokeWidth=3;fillColor=#f5af58;fontFamily=Helvetica;fontSize=14;fontColor=#FFFFFF;align=center;spacing=5;arcSize=7;perimeterSpacing=2;" parent="42" vertex="1">
                    <mxGeometry x="10" y="34" width="150" height="148" as="geometry"/>
                </mxCell>
                <mxCell id="46" value="共通点を強調" style="swimlane;whiteSpace=wrap;html=1;" parent="1" vertex="1">
                    <mxGeometry x="840" y="1040" width="170" height="279.5" as="geometry"/>
                </mxCell>
                <mxCell id="47" value="共通点を強調" style="rounded=1;whiteSpace=wrap;html=1;shadow=0;labelBackgroundColor=none;strokeColor=none;strokeWidth=3;fillColor=#F08705;fontFamily=Helvetica;fontSize=14;fontColor=#FFFFFF;align=center;spacing=5;fontStyle=1;arcSize=7;perimeterSpacing=2;" parent="46" vertex="1">
                    <mxGeometry x="10" y="200" width="150" height="73" as="geometry"/>
                </mxCell>
                <mxCell id="48" style="edgeStyle=orthogonalEdgeStyle;rounded=0;orthogonalLoop=1;jettySize=auto;html=1;" parent="46" source="49" target="47" edge="1">
                    <mxGeometry relative="1" as="geometry"/>
                </mxCell>
                <mxCell id="49" value="人と人、集団と集団が横並びに置かれるとき、その集団の「差分」が強調されてしまう。&lt;br&gt;そうではなく、「共通項」に着目することで" style="rounded=1;whiteSpace=wrap;html=1;shadow=0;labelBackgroundColor=none;strokeColor=none;strokeWidth=3;fillColor=#f5af58;fontFamily=Helvetica;fontSize=14;fontColor=#FFFFFF;align=center;spacing=5;arcSize=7;perimeterSpacing=2;" parent="46" vertex="1">
                    <mxGeometry x="10" y="34" width="150" height="148" as="geometry"/>
                </mxCell>
                <mxCell id="50" value="素早いレスポンス" style="swimlane;whiteSpace=wrap;html=1;" parent="1" vertex="1">
                    <mxGeometry x="440" y="1040" width="370" height="279.5" as="geometry"/>
                </mxCell>
                <mxCell id="51" value="「リアクション」押下" style="rounded=1;whiteSpace=wrap;html=1;shadow=0;labelBackgroundColor=none;strokeColor=none;strokeWidth=3;fillColor=#F08705;fontFamily=Helvetica;fontSize=14;fontColor=#FFFFFF;align=center;spacing=5;fontStyle=1;arcSize=7;perimeterSpacing=2;" parent="50" vertex="1">
                    <mxGeometry x="10" y="210" width="150" height="63" as="geometry"/>
                </mxCell>
                <mxCell id="52" style="edgeStyle=orthogonalEdgeStyle;rounded=0;orthogonalLoop=1;jettySize=auto;html=1;" parent="50" source="53" target="51" edge="1">
                    <mxGeometry relative="1" as="geometry"/>
                </mxCell>
                <mxCell id="53" value="素早いレスポンスは安心感を生む。&lt;br&gt;ネガティブであれ、ポジティブであれ、フィードバックがないよりは遥かにマシ" style="rounded=1;whiteSpace=wrap;html=1;shadow=0;labelBackgroundColor=none;strokeColor=none;strokeWidth=3;fillColor=#f5af58;fontFamily=Helvetica;fontSize=14;fontColor=#FFFFFF;align=center;spacing=5;arcSize=7;perimeterSpacing=2;" parent="50" vertex="1">
                    <mxGeometry x="10" y="34" width="150" height="148" as="geometry"/>
                </mxCell>
                <mxCell id="54" style="edgeStyle=orthogonalEdgeStyle;rounded=0;orthogonalLoop=1;jettySize=auto;html=1;" parent="50" source="55" target="56" edge="1">
                    <mxGeometry relative="1" as="geometry"/>
                </mxCell>
                <UserObject label="「無言」を選択することで&lt;br style=&quot;border-color: var(--border-color);&quot;&gt;相手は勝手に不安要素を洗い出し、いろいろ想像してしまう&lt;br style=&quot;border-color: var(--border-color);&quot;&gt;不安感をあおることが出来る" link="https://qiita.com/" id="55">
                    <mxCell style="rounded=1;whiteSpace=wrap;html=1;shadow=0;labelBackgroundColor=none;strokeColor=none;strokeWidth=3;fillColor=#61c6ce;fontFamily=Helvetica;fontSize=14;fontColor=#FFFFFF;align=center;spacing=5;fontStyle=0;arcSize=7;perimeterSpacing=2;" parent="50" vertex="1">
                        <mxGeometry x="210" y="34" width="150" height="150" as="geometry"/>
                    </mxCell>
                </UserObject>
                <mxCell id="56" value="無言戦略" style="rounded=1;whiteSpace=wrap;html=1;shadow=0;labelBackgroundColor=none;strokeColor=none;strokeWidth=3;fillColor=#12aab5;fontFamily=Helvetica;fontSize=14;fontColor=#FFFFFF;align=center;spacing=5;fontStyle=1;arcSize=7;perimeterSpacing=2;" parent="50" vertex="1">
                    <mxGeometry x="210" y="209.9999999999999" width="150" height="60" as="geometry"/>
                </mxCell>
                <mxCell id="57" value="責任分散" style="swimlane;whiteSpace=wrap;html=1;" vertex="1" parent="1">
                    <mxGeometry x="40" y="1360" width="170" height="280" as="geometry"/>
                </mxCell>
                <mxCell id="58" value="行動の一貫性の誘発&lt;br&gt;責任を発生させる" style="rounded=1;whiteSpace=wrap;html=1;shadow=0;labelBackgroundColor=none;strokeColor=none;strokeWidth=3;fillColor=#B266FF;fontFamily=Helvetica;fontSize=14;fontColor=#FFFFFF;align=center;spacing=5;fontStyle=1;arcSize=7;perimeterSpacing=2;" vertex="1" parent="57">
                    <mxGeometry x="10" y="207" width="150" height="60" as="geometry"/>
                </mxCell>
                <mxCell id="59" style="edgeStyle=orthogonalEdgeStyle;rounded=0;orthogonalLoop=1;jettySize=auto;html=1;entryX=0.5;entryY=0;entryDx=0;entryDy=0;" edge="1" parent="57" source="60" target="58">
                    <mxGeometry relative="1" as="geometry"/>
                </mxCell>
                <mxCell id="60" value="他の人に同意をとりに行く&lt;br&gt;「〜〜だと思います。&lt;br&gt;XXさんどう思います？」" style="rounded=1;whiteSpace=wrap;html=1;shadow=0;labelBackgroundColor=none;strokeColor=none;strokeWidth=3;fillColor=#CC99FF;fontFamily=Helvetica;fontSize=14;fontColor=#FFFFFF;align=left;spacing=5;arcSize=7;perimeterSpacing=2;" vertex="1" parent="57">
                    <mxGeometry x="10" y="32" width="150" height="148" as="geometry"/>
                </mxCell>
                <mxCell id="61" value="質問の順番" style="swimlane;whiteSpace=wrap;html=1;startSize=23;" vertex="1" parent="1">
                    <mxGeometry x="240" y="1360.5" width="370" height="279.5" as="geometry"/>
                </mxCell>
                <mxCell id="62" value="現状維持" style="rounded=1;whiteSpace=wrap;html=1;shadow=0;labelBackgroundColor=none;strokeColor=none;strokeWidth=3;fillColor=#1699d3;fontFamily=Helvetica;fontSize=14;fontColor=#FFFFFF;align=center;spacing=5;fontStyle=1;arcSize=7;perimeterSpacing=2;" vertex="1" parent="61">
                    <mxGeometry x="210" y="213" width="150" height="60" as="geometry"/>
                </mxCell>
                <mxCell id="63" style="edgeStyle=orthogonalEdgeStyle;rounded=0;orthogonalLoop=1;jettySize=auto;html=1;entryX=0.5;entryY=0;entryDx=0;entryDy=0;" edge="1" parent="61" source="64" target="62">
                    <mxGeometry relative="1" as="geometry"/>
                </mxCell>
                <mxCell id="64" value="無作為に選んだ人に&lt;br style=&quot;border-color: var(--border-color);&quot;&gt;１、「今幸せか？」を問いかける&lt;br style=&quot;border-color: var(--border-color);&quot;&gt;２、「デートの頻度」を問いかける&lt;br style=&quot;border-color: var(--border-color);&quot;&gt;二つの数字に相関はなかった。" style="rounded=1;whiteSpace=wrap;html=1;shadow=0;labelBackgroundColor=none;strokeColor=none;strokeWidth=3;fillColor=#64bbe2;fontFamily=Helvetica;fontSize=14;fontColor=#FFFFFF;align=center;spacing=5;arcSize=7;perimeterSpacing=2;" vertex="1" parent="61">
                    <mxGeometry x="210" y="31.5" width="150" height="149.5" as="geometry"/>
                </mxCell>
                <mxCell id="65" value="言語" style="text;html=1;strokeColor=none;fillColor=none;align=center;verticalAlign=middle;whiteSpace=wrap;rounded=0;" vertex="1" parent="61">
                    <mxGeometry x="160" y="228" width="60" height="30" as="geometry"/>
                </mxCell>
                <mxCell id="66" value="答えるのに苦労する質問は後に回すことで&lt;br style=&quot;border-color: var(--border-color);&quot;&gt;答えをコントロール" style="rounded=1;whiteSpace=wrap;html=1;shadow=0;labelBackgroundColor=none;strokeColor=none;strokeWidth=3;fillColor=#B266FF;fontFamily=Helvetica;fontSize=14;fontColor=#FFFFFF;align=center;spacing=5;fontStyle=1;arcSize=7;perimeterSpacing=2;" vertex="1" parent="61">
                    <mxGeometry x="10" y="213" width="150" height="60" as="geometry"/>
                </mxCell>
                <mxCell id="67" style="edgeStyle=orthogonalEdgeStyle;rounded=0;orthogonalLoop=1;jettySize=auto;html=1;" edge="1" parent="61" source="68" target="66">
                    <mxGeometry relative="1" as="geometry"/>
                </mxCell>
                <mxCell id="68" value="無作為に選んだ人に&lt;br style=&quot;border-color: var(--border-color);&quot;&gt;１、「デートの頻度」を問いかける&lt;br style=&quot;border-color: var(--border-color);&quot;&gt;２，「今幸せか？」を問いかける&lt;br style=&quot;border-color: var(--border-color);&quot;&gt;デートの頻度に比例して幸せ度合が増加した" style="rounded=1;whiteSpace=wrap;html=1;shadow=0;labelBackgroundColor=none;strokeColor=none;strokeWidth=3;fillColor=#CC99FF;fontFamily=Helvetica;fontSize=14;fontColor=#FFFFFF;align=center;spacing=5;arcSize=7;perimeterSpacing=2;" vertex="1" parent="61">
                    <mxGeometry x="10" y="33" width="150" height="148" as="geometry"/>
                </mxCell>
            </root>
        </mxGraphModel>
    </diagram>
</mxfile>